# xmcd
#
# Track frame offsets: 
#        150
#        15612
#        30040
#        43467
#        58112
#        72205
#        88240
#        102257
#        115130
#        127800
#        141220
#        153547
#        165012
#        177270
#        190122
#        203312
#        214337
#        228405
#        242930
#        255050
#        268875
#        283017
#
# Disc length: 3959 seconds
#
# Revision: 2
# Processed by: cddbd v1.5.2PL0 Copyright (c) Steve Scherf et al.
# Submitted via: ExactAudioCopyFreeDBPlugin 1.0
#
DISCID=2c0f7516
DTITLE=Memphis Jug Band - The Story 1927-1934
DYEAR=1927
DGENRE=Blues
TTITLE0=Sun brimmers blues
TTITLE1=Newport news blues
TTITLE2=Memphis boy blues
TTITLE3=I packed my suitcase, started to the train
TTITLE4=I'll see you in the spring, when the birds begin to song
TTITLE5=Coal oil blues
TTITLE6=She stays out all night long
TTITLE7=Lindberg hop
TTITLE8=A black woman is like a blind snake
TTITLE9=Stealin' stealin'
TTITLE10=The old folks started it
TTITLE11=K.C. Moan
TTITLE12=Oh ambulance man
TTITLE13=Cocaine habit blues
TTITLE14=Bumble bee blues
TTITLE15=Going back to Memphis
TTITLE16=Spider's next blues
TTITLE17=He's in the jailhouse now
TTITLE18=Gator Wobble
TTITLE19=Mary Anna cut off
TTITLE20=Insane crazy blues
TTITLE21=Memphis shakedown
EXTD=YEAR: 1999
EXTT0=
EXTT1=
EXTT2=
EXTT3=
EXTT4=
EXTT5=
EXTT6=
EXTT7=
EXTT8=
EXTT9=
EXTT10=
EXTT11=
EXTT12=
EXTT13=
EXTT14=
EXTT15=
EXTT16=
EXTT17=
EXTT18=
EXTT19=
EXTT20=
EXTT21=
PLAYORDER=
